<?xml version="1.0" encoding="UTF-8"?>
<svg enable-background="new" version="1.1" viewBox="0 0 199.53685 390.45374" xmlns="http://www.w3.org/2000/svg">
 <defs>
  <filter id="g" x="-.41037" y="-.04826" width="1.8208" height="1.0965">
   <feGaussianBlur stdDeviation="6.55762"/>
  </filter>
  <filter id="f" x="-.53322" y="-.06076" width="2.0664" height="1.1215">
   <feGaussianBlur stdDeviation="8.20267"/>
  </filter>
  <filter id="e" x="-.05168" y="-.69082" width="1.1034" height="2.3816">
   <feGaussianBlur stdDeviation="2.65378"/>
  </filter>
  <filter id="b" x="-.38246" y="-.33928" width="1.7649" height="1.6786">
   <feGaussianBlur stdDeviation="3.13029"/>
  </filter>
  <filter id="h" x="-.06303" y="-.84252" width="1.1261" height="2.685">
   <feGaussianBlur stdDeviation="3.23653"/>
  </filter>
  <filter id="d" x="-.40755" y="-.67245" width="1.8151" height="2.3449">
   <feGaussianBlur stdDeviation="8.00536"/>
  </filter>
  <linearGradient id="c" x1="289.07" x2="340.81" gradientUnits="userSpaceOnUse">
   <stop offset="0"/>
   <stop stop-opacity="0" offset="1"/>
  </linearGradient>
  <radialGradient id="a" cx="363.46" cy="236.45" r="19.176" gradientTransform="matrix(12.484 -.06822 .20035 36.66 -4201.3 -8131)" gradientUnits="userSpaceOnUse">
   <stop stop-color="#fff" offset="0"/>
   <stop stop-color="#8f574a" stop-opacity="0" offset="1"/>
  </radialGradient>
 </defs>
 <g transform="translate(-252.8 -312.49)">
  <path d="m334.22 340.15c13.693-5.8905 26.648-4.0348 39.396 0 0.0465 2.4166 1.4586 4.6966-0.63135 7.3268l-38.095 0.50798c-1.6081-2.4577-1.1565-5.1443-0.66965-7.8348z" fill="#005e1a" stroke="#000"/>
  <path d="m334.22 323.35c13.898 1.6736 26.834 1.6716 39.396 0m-39.396-0.72549c13.132-2.6393 26.264-3.0682 39.396 0 0 0-2.0136 11.39-3.6618 16.92-11.35 38.082-23.159 38.411-31.946-0.25254l-3.7881-16.667z" fill="#8f574a" stroke="#000" stroke-width=".1"/>
  <path d="m334.22 340.44s7.3553 77.482 0 115.16c-7.033 36.024-33.682 66.149-41.406 102.03-5.0339 23.384-3.7007 47.607-2.7812 71.688s2.7812 43.469 2.7812 43.469c40.406 12.795 80.813 12.795 121.22 0 0 0 1.7882-19.361 2.6875-43.438s2.2373-48.308-2.6875-71.719c-7.5301-35.795-33.55-66.101-40.406-102.03-7.1946-37.706 0-115.16 0-115.16-15.528 5.4847-27.929 3.9921-39.406 0z" fill="#00300d" fill-rule="evenodd" stroke="#000" stroke-miterlimit="4.1" stroke-width=".1"/>
  <path d="m293.29 671.32c65.817 16.39 88.5 7.3982 123.24 0" filter="url(#e)" stroke="#000"/>
  <path d="m338.39 379.03c11.296 2.0111 22.702 1.8673 31.922 0 7e-3 0 0.88385 0.0208 0.88385 0.0276l-0.58794 18.913c0 7e-3 -0.28911-4e-5 -0.29591-4e-5 -8.6959 1.5029-17.203 2.7241-31.922 0-7e-3 0-1.1127-0.0405-1.1127-0.0473l-0.58399-18.854c0-7e-3 1.6899-0.0394 1.6967-0.0394v-5e-5z" fill="#e7d9b9" stroke="#efdbc6" stroke-dasharray="3.8, 1.9, 0.95, 1.9" stroke-width="1.9"/>
 </g>
 <g transform="translate(-252.8 -312.49)" opacity=".6">
  <path d="m365.24 349.39s-2.0306 70.848-0.17856 106.2c1.7893 34.155 9.1071 47.673 10.893 102.03v117.89c8.7902-0.93235 20.443-3.0534 24.048-5.7143-0.47901-24.722 5.0597-86.686 1.337-112.17-7.8004-53.458-25.652-66.932-31.724-102.03-6.0401-34.911-2.5717-78.311-4.375-106.2z" fill="url(#a)"/>
 </g>
 <g transform="translate(-252.8 -312.49)">
  <path d="m291.81 557.57c40.406 6.2339 81.806 5.9333 122.21 0.0474 5.7452 23.6 4.3614 47.86 3.3482 72.167-42.192 8.8867-86.134 7.9308-128.33-0.68813-1.4782-20.685-2.1349-46.306 2.7652-71.526z" fill="#e7d9b9" stroke="#efdbc6" stroke-dasharray="4.2, 2.1, 1.05, 2.1" stroke-width="2.1"/>
  <text x="307.59146" y="327.3252" font-family="Bitstream Vera Sans" font-size="40">
   <tspan x="307.59146" y="327.3252"/>
  </text>
  <path d="m358.77 353.33c0.38847 26.011-7.8707 75.084-10.074 102.26-4.7372 54.818-10.749 52.675-14.476 107.58-1.6346 27.055-1.526 86.358 0 112.13 9.8414 2.4679 20.57 2.5343 35.734 1.0101v-113.14c-1.2675-53.759-3.1648-54.391-10.357-107.58-3.5137-26.502 0.71681-75.277-0.82696-102.26z" fill="#0c0300" filter="url(#f)" opacity=".32308"/>
  <path transform="matrix(1.426 0 0 1.9137 -130.01 -98.668)" d="m276.81 401.47c65.817 16.39 88.5 7.3982 123.24 0" filter="url(#h)" opacity=".70318" stroke="#000"/>
  <path transform="matrix(1.0064 0 0 1.2846 11.696 242.24)" d="m324.82 102.54 0.71428 20.893 18.929 1.25-19.643-22.143z" filter="url(#b)" opacity=".24735" stroke="#000"/>
  <path transform="matrix(1.0064 0 0 1.2846 12.946 190.99)" d="m324.82 102.54 0.71428 20.893 18.929 1.25-19.643-22.143z" filter="url(#b)" opacity=".4311" stroke="#000"/>
  <path d="m289.57 672.22c1.0244-94.013 0.30805-116.72 17.285-144.57 23.878-39.167 30.422-65.884 31.151-89.816s-4.0671-44.902-2.0074-72.044c9.7973 53.225 3.1412 144-22.702 187.02-16.241 27.039-0.45989 36.972-8.7268 123.69l-15-4.2857z" fill="url(#c)" opacity=".07631"/>
  <path transform="translate(6,12)" d="m388.57 516.65c0 7.8898-10.553 14.286-23.571 14.286s-23.571-6.3959-23.571-14.286 10.553-14.286 23.571-14.286 23.571 6.3959 23.571 14.286z" fill="#fff" filter="url(#d)" opacity=".46988"/>
 </g>
 <g transform="translate(-252.8 -312.49)">
  <path d="m365.24 349.39s-2.0306 70.848-0.17856 106.2c1.7893 34.155 9.1071 47.673 10.893 102.03v117.89c8.7902-0.93235 20.443-3.0534 24.048-5.7143-0.47901-24.722 5.0597-86.686 1.337-112.17-7.8004-53.458-25.652-66.932-31.724-102.03-6.0401-34.911-2.5717-78.311-4.375-106.2z" fill="url(#a)" filter="url(#g)"/>
 </g>
</svg>
